<svg xmlns="http://www.w3.org/2000/svg" viewBox="0 0 400 400">
  <rect width="400" height="400" fill="#f5f5f7"/>
  <!-- Controller body -->
  <path d="M80 180 Q80 130, 130 130 L270 130 Q320 130, 320 180 L320 240 Q320 290, 270 290 Q240 290, 220 270 L180 270 Q160 290, 130 290 Q80 290, 80 240 Z" fill="#1a1a1a"/>
  <!-- Highlights -->
  <path d="M85 180 Q85 135, 130 135 L270 135 Q315 135, 315 180" fill="none" stroke="#444" stroke-width="1"/>
  <!-- D-pad -->
  <rect x="115" y="190" width="35" height="10" rx="2" fill="#0f0f0f"/>
  <rect x="127" y="178" width="10" height="35" rx="2" fill="#0f0f0f"/>
  <!-- Buttons -->
  <circle cx="265" cy="180" r="8" fill="#22c55e"/>
  <circle cx="295" cy="200" r="8" fill="#ef4444"/>
  <circle cx="265" cy="220" r="8" fill="#3b82f6"/>
  <circle cx="235" cy="200" r="8" fill="#eab308"/>
  <!-- Sticks -->
  <circle cx="170" cy="240" r="22" fill="#0f0f0f"/>
  <circle cx="170" cy="240" r="14" fill="#2a2a2a"/>
  <circle cx="230" cy="240" r="22" fill="#0f0f0f"/>
  <circle cx="230" cy="240" r="14" fill="#2a2a2a"/>
  <!-- Touchpad -->
  <rect x="170" y="160" width="60" height="20" rx="3" fill="#2a2a2a"/>
</svg>
